<svg id="visual" viewBox="0 0 900 600" width="900" height="600" xmlns="http://www.w3.org/2000/svg" xmlns:xlink="http://www.w3.org/1999/xlink" version="1.1"><rect x="0" y="0" width="900" height="600" fill="#97ebdb"></rect><path d="M0 396L21.5 391.5C43 387 86 378 128.8 377C171.7 376 214.3 383 257.2 393.7C300 404.3 343 418.7 385.8 417.7C428.7 416.7 471.3 400.3 514.2 394.7C557 389 600 394 642.8 390.7C685.7 387.3 728.3 375.7 771.2 374.2C814 372.7 857 381.3 878.5 385.7L900 390L900 601L878.5 601C857 601 814 601 771.2 601C728.3 601 685.7 601 642.8 601C600 601 557 601 514.2 601C471.3 601 428.7 601 385.8 601C343 601 300 601 257.2 601C214.3 601 171.7 601 128.8 601C86 601 43 601 21.5 601L0 601Z" fill="#92cbdf"></path><path d="M0 447L21.5 441.2C43 435.3 86 423.7 128.8 415.8C171.7 408 214.3 404 257.2 404.2C300 404.3 343 408.7 385.8 415.7C428.7 422.7 471.3 432.3 514.2 435.7C557 439 600 436 642.8 429.3C685.7 422.7 728.3 412.3 771.2 407C814 401.7 857 401.3 878.5 401.2L900 401L900 601L878.5 601C857 601 814 601 771.2 601C728.3 601 685.7 601 642.8 601C600 601 557 601 514.2 601C471.3 601 428.7 601 385.8 601C343 601 300 601 257.2 601C214.3 601 171.7 601 128.8 601C86 601 43 601 21.5 601L0 601Z" fill="#7ab0e4"></path><path d="M0 456L21.5 461.3C43 466.7 86 477.3 128.8 478.2C171.7 479 214.3 470 257.2 465.3C300 460.7 343 460.3 385.8 467.2C428.7 474 471.3 488 514.2 495.5C557 503 600 504 642.8 505.3C685.7 506.7 728.3 508.3 771.2 505.5C814 502.7 857 495.3 878.5 491.7L900 488L900 601L878.5 601C857 601 814 601 771.2 601C728.3 601 685.7 601 642.8 601C600 601 557 601 514.2 601C471.3 601 428.7 601 385.8 601C343 601 300 601 257.2 601C214.3 601 171.7 601 128.8 601C86 601 43 601 21.5 601L0 601Z" fill="#8f8dd9"></path><path d="M0 516L21.5 515.5C43 515 86 514 128.8 510.8C171.7 507.7 214.3 502.3 257.2 498.5C300 494.7 343 492.3 385.8 492C428.7 491.7 471.3 493.3 514.2 497.3C557 501.3 600 507.7 642.8 510C685.7 512.3 728.3 510.7 771.2 506.3C814 502 857 495 878.5 491.5L900 488L900 601L878.5 601C857 601 814 601 771.2 601C728.3 601 685.7 601 642.8 601C600 601 557 601 514.2 601C471.3 601 428.7 601 385.8 601C343 601 300 601 257.2 601C214.3 601 171.7 601 128.8 601C86 601 43 601 21.5 601L0 601Z" fill="#b55fb0"></path><path d="M0 547L21.5 549.2C43 551.3 86 555.7 128.8 559.5C171.7 563.3 214.3 566.7 257.2 567.8C300 569 343 568 385.8 566.5C428.7 565 471.3 563 514.2 563.5C557 564 600 567 642.8 561.5C685.7 556 728.3 542 771.2 535.3C814 528.7 857 529.3 878.5 529.7L900 530L900 601L878.5 601C857 601 814 601 771.2 601C728.3 601 685.7 601 642.8 601C600 601 557 601 514.2 601C471.3 601 428.7 601 385.8 601C343 601 300 601 257.2 601C214.3 601 171.7 601 128.8 601C86 601 43 601 21.5 601L0 601Z" fill="#c62368"></path></svg>